<?xml version="1.0" encoding="UTF-8" standalone="no"?>
<!-- Created with Inkscape (http://www.inkscape.org/) -->

<svg
   width="180mm"
   height="80mm"
   viewBox="0 0 180 80"
   version="1.1"
   id="svg1"
   inkscape:version="1.3.2 (091e20e, 2023-11-25, custom)"
   sodipodi:docname="signature.svg"
   xmlns:inkscape="http://www.inkscape.org/namespaces/inkscape"
   xmlns:sodipodi="http://sodipodi.sourceforge.net/DTD/sodipodi-0.dtd"
   xmlns="http://www.w3.org/2000/svg"
   xmlns:svg="http://www.w3.org/2000/svg">
  <sodipodi:namedview
     id="namedview1"
     pagecolor="#000000"
     bordercolor="#000000"
     borderopacity="0.25"
     inkscape:showpageshadow="2"
     inkscape:pageopacity="0.0"
     inkscape:pagecheckerboard="true"
     inkscape:deskcolor="#d1d1d1"
     inkscape:document-units="mm"
     inkscape:zoom="1.4022026"
     inkscape:cx="430.03772"
     inkscape:cy="177.22118"
     inkscape:window-width="1920"
     inkscape:window-height="1001"
     inkscape:window-x="1911"
     inkscape:window-y="-9"
     inkscape:window-maximized="1"
     inkscape:current-layer="layer1" />
  <defs
     id="defs1" />
  <g
     inkscape:label="Layer 1"
     inkscape:groupmode="layer"
     id="layer1">
    <path
       style="fill:#f9f9f9;stroke-width:0.264583"
       id="path1"
       d="m 5.3643148,54.63305 c -0.7265611,0.82682 -1.2016837,1.843545 -1.623057,2.851073 -0.4398838,1.226005 -0.534751,2.531872 -0.6109124,3.821602 -0.055377,0.951587 0.083938,1.900431 0.6226776,2.709362 0.1153462,0.173197 0.2585678,0.326113 0.3878516,0.489167 0.3898268,0.375166 0.5041204,0.53099 0.9902733,0.803754 1.2975338,0.727999 2.5929764,1.462032 3.9224187,2.129983 0.2474167,0.12431 0.5284944,0.165727 0.7951605,0.240271 0.7315559,0.204504 0.8551649,0.21772 1.5891009,0.370763 0.856576,0.156795 1.722484,0.258451 2.592298,0.300554 0.185412,0.009 0.371453,0.02964 0.556635,0.01677 0.213938,-0.01487 0.423733,-0.06644 0.6356,-0.09965 0.255873,-0.105757 0.521546,-0.19037 0.767619,-0.31727 0.295391,-0.152331 0.574784,-0.334587 0.85198,-0.517951 0.898263,-0.594196 1.748235,-1.281443 2.522175,-2.030145 0.254492,-0.246192 0.492583,-0.508794 0.738874,-0.763191 1.10098,-1.238033 2.103472,-2.567453 2.871924,-4.039571 0.135554,-0.25968 0.254013,-0.527933 0.381019,-0.7919 0.121759,-0.267134 0.252839,-0.530214 0.365277,-0.801404 0.161076,-0.388501 0.54001,-1.453463 0.678255,-1.84049 0.303761,-0.8504 0.583913,-1.700948 0.838726,-2.567151 0.455649,-1.785295 0.72471,-3.611277 0.916699,-5.441675 0.19201,-1.937758 0.142483,-3.887499 0.150532,-5.831983 0.04152,-1.492057 -0.022,-2.983703 -0.03384,-4.475459 -0.0033,-0.415567 0.0025,-0.831156 0.0038,-1.246735 -0.005,-0.482557 -0.0099,-0.965115 -0.01491,-1.447673 0.0036,-0.501348 0.0052,-1.002715 0.01076,-1.504047 0.01458,-1.326 0.01251,-1.633091 0.09257,-2.947184 0.08246,-1.353431 0.221422,-2.701313 0.364511,-4.049299 0.22265,-2.053436 0.594347,-4.086673 1.063057,-6.097133 0.215939,-1.134153 0.504055,-2.258476 0.990938,-3.308191 0.29242,-0.483751 0.701987,-1.19199 1.221161,-1.454526 0.334719,1.395647 0.06076,0.07822 -3.263858,-1.694919 -0.05194,-0.0277 0.07784,0.09191 0.09696,0.147581 0.106103,0.308983 0.03268,0.686714 0.0037,0.999815 -0.17641,1.066864 -0.294322,2.140441 -0.36436,3.219193 -0.0269,2.011999 -0.07766,4.022532 -0.06063,6.03479 -0.01278,1.76428 0.122581,3.523921 0.304972,5.277269 0.02977,0.253363 0.06046,0.506622 0.08932,0.76009 0.046,0.404096 0.09031,0.876514 0.152172,1.280613 0.09971,0.651301 0.23894,1.297649 0.367541,1.943645 0.307229,1.49707 0.741288,2.962338 1.140788,4.436009 0.317524,1.228082 0.659392,2.449198 1.050517,3.655878 0.41021,1.239731 0.85358,2.467602 1.292376,3.697358 0.352481,0.967592 0.808249,1.892594 1.273106,2.8101 0.254556,0.474885 0.530606,0.94106 0.866534,1.363306 0.228256,0.282495 0.46749,0.555675 0.699651,0.83489 0.211564,0.268327 0.342033,0.587422 0.527217,0.872783 0.0362,0.05578 0.0587,0.128792 0.116245,0.162103 1.165897,0.674899 2.35872,1.302176 3.538082,1.953265 0.07351,-0.07671 0.155242,-0.146312 0.220525,-0.230132 0.09674,-0.124201 0.244425,-0.413986 0.311063,-0.550429 0.189791,-0.388609 0.34308,-0.77725 0.481295,-1.186926 0.26601,-0.844891 0.537893,-1.687798 0.819055,-2.527715 0.217326,-0.788091 0.458613,-1.568765 0.662715,-2.360504 0.201144,-0.776325 0.540888,-1.503336 0.841052,-2.243632 0.285224,-0.68275 0.675992,-1.312826 1.10385,-1.913975 0.222192,-0.280953 0.430194,-0.571725 0.672812,-0.835469 0,0 -3.352517,-2.022555 -3.352517,-2.022555 v 0 c -0.236218,0.285766 -0.451909,0.58547 -0.666914,0.887426 -0.431406,0.629949 -0.817026,1.297556 -1.124792,1.996501 -0.325302,0.748699 -0.625721,1.510016 -0.868838,2.289611 -0.212199,0.782408 -0.400228,1.57253 -0.661067,2.34069 -0.251341,0.847015 -0.505391,1.693328 -0.779304,2.533417 -0.1436,0.380489 -0.300156,0.745543 -0.499912,1.100627 -0.01574,0.02797 -0.192532,0.335952 -0.266149,0.38237 -0.01744,0.01098 -0.03631,-0.0195 -0.05446,-0.02924 1.08731,0.637246 2.173824,1.27585 3.261928,1.911733 0.05415,0.03165 -0.112985,-0.0575 -0.16002,-0.09899 -0.251732,-0.222059 -0.361759,-0.573238 -0.506619,-0.863907 -0.196045,-0.315859 -0.463166,-0.575659 -0.700029,-0.861065 -0.09224,-0.110964 -0.195101,-0.212823 -0.286887,-0.324157 -0.25549,-0.309904 -0.449035,-0.671116 -0.676249,-1.000614 -0.509924,-0.898065 -0.976564,-1.822681 -1.352143,-2.785536 -0.220321,-0.595903 -0.468127,-1.183487 -0.678751,-1.78272 -0.221578,-0.630389 -0.402164,-1.275771 -0.627941,-1.904918 -0.382828,-1.216158 -0.767895,-2.432654 -1.104537,-3.6624 -0.202431,-0.754687 -0.452123,-1.496608 -0.64447,-2.253739 -0.08642,-0.340175 -0.255132,-1.157944 -0.330316,-1.512054 -0.04486,-0.211297 -0.09019,-0.422492 -0.135279,-0.633738 -0.300929,-1.309354 -0.50378,-2.639891 -0.672703,-3.972261 -0.197006,-1.756257 -0.398206,-3.514471 -0.399913,-5.284737 -0.02326,-1.982211 -0.01201,-3.971755 0.157041,-5.947721 0.101846,-1.059556 0.236985,-2.116118 0.444003,-3.160846 0.05294,-0.36362 0.12024,-0.742835 0.124698,-1.111501 0.0011,-0.0867 0.04974,-0.210701 -0.02215,-0.259171 -3.343653,-2.254316 -2.315329,-2.769804 -3.677499,-1.983134 -0.514516,0.47629 -0.922387,1.06388 -1.264216,1.672676 -0.444259,1.104271 -0.70527,2.268295 -0.90567,3.439611 -0.405916,2.055981 -0.705287,4.131261 -0.927621,6.215118 -0.126423,1.362271 -0.251043,2.724219 -0.325349,4.090615 -0.08611,1.583518 -0.05741,1.366583 -0.08557,2.963315 -0.0088,0.498337 -0.021,0.996608 -0.0315,1.494914 -0.08443,2.691304 -0.02347,0.197498 -0.03828,2.673696 -0.0089,1.479857 -0.06747,2.959598 -0.03211,4.439727 -0.0084,1.926871 -0.04648,3.854186 -0.182559,5.776817 -0.06256,0.679101 -0.09852,1.156036 -0.193528,1.833571 -0.167302,1.193038 -0.436218,2.367925 -0.717236,3.538339 -0.467485,1.767544 -1.042254,3.5086 -1.839381,5.158089 -0.19098,0.395925 -0.548313,1.15262 -0.76437,1.537306 -0.655275,1.166706 -1.47922,2.233501 -2.374353,3.224509 -1.161329,1.191315 -2.514176,2.500778 -4.089582,3.121855 -0.248185,0.09784 -0.514319,0.141963 -0.771479,0.212942 -0.208665,0.01273 -0.416955,0.03579 -0.625995,0.03819 -0.183628,0.0021 -0.366987,-0.01495 -0.550368,-0.02469 C 10.128528,66.048196 9.2938088,65.959404 8.4713544,65.796051 7.8297475,65.653184 7.5548039,65.606112 6.9200762,65.405653 6.6504885,65.32051 5.8919977,64.956993 6.1200315,65.124107 6.9171184,65.708249 7.8111058,66.147277 8.6483647,66.672221 8.8286753,66.785272 8.2672305,66.479999 8.0913908,66.360111 7.9270356,66.248054 7.785111,66.106201 7.631971,65.979246 7.4982548,65.839344 7.3510181,65.711215 7.2308222,65.559537 6.6580887,64.836799 6.4709328,63.946613 6.5028555,63.043892 c 0.042343,-1.25263 0.1110091,-2.519286 0.5397371,-3.710384 0.3970393,-0.961412 0.8463446,-1.946902 1.6518662,-2.637864 z" />
    <path
       style="fill:#f9f9f9;stroke-width:0.264583"
       id="path2"
       d="M 19.234991,50.238233 C 19.071846,49.812281 18.943476,49.352908 18.688369,48.968694 18.596081,48.8297 18.484351,48.704645 18.382342,48.57262 18.261108,48.450949 18.146554,48.322237 18.01864,48.207609 c -0.190226,-0.170468 -0.630488,-0.510026 -0.858351,-0.643284 -1.227154,-0.717664 -2.45988,-1.425998 -3.700985,-2.119254 -0.247261,-0.138115 -0.518244,-0.228785 -0.77448,-0.349438 1.04746,0.595604 2.109902,1.165598 3.142379,1.786813 0.02559,0.0154 -0.04706,0.04213 -0.0546,0.07102 -0.01658,0.06354 -0.05682,0.145632 -0.01518,0.196403 0.04257,0.0519 0.132839,0.01945 0.19939,0.0282 0.281478,0.03704 0.56323,0.07198 0.844743,0.108767 1.535121,0.143568 3.069996,0.267092 4.611868,0.294783 1.224982,-0.02297 2.446428,-0.1539 3.659583,-0.319688 0.901479,-0.126939 1.806822,-0.218123 2.691774,-0.435518 0.662339,-0.173124 1.333709,-0.308477 1.996617,-0.479022 0.822537,-0.211532 1.63408,-0.463743 2.443115,-0.721628 0.622691,-0.180879 1.202237,-0.473879 1.806845,-0.701704 0.06491,-0.02003 0.131984,-0.03406 0.194746,-0.06006 0.06517,-0.02699 0.123963,-0.06747 0.187434,-0.09824 0.213127,-0.103346 0.442264,-0.186491 0.66398,-0.269687 0.343632,-0.157374 0.652502,-0.382375 0.983654,-0.566338 0.332917,-0.13976 0.634302,-0.342042 0.935998,-0.537919 0,0 -3.314568,-2.131337 -3.314568,-2.131337 v 0 c -0.299048,0.187954 -0.599151,0.371551 -0.918956,0.522996 -0.316222,0.180718 -0.612298,0.402442 -0.96072,0.519962 -0.343228,0.147584 -0.683628,0.301 -1.028182,0.445397 -0.571336,0.260747 -1.14182,0.523533 -1.744104,0.707763 -0.803439,0.271637 -1.61607,0.510775 -2.447248,0.682847 -0.659996,0.154009 -1.314515,0.326173 -1.971626,0.491532 -0.870039,0.194099 -1.757979,0.296747 -2.638741,0.430139 -1.18406,0.171627 -2.377016,0.304654 -3.57491,0.308353 -1.554957,-0.01797 -3.108994,-0.124169 -4.645245,-0.374679 -0.26402,-0.03561 -0.99517,-0.203345 -1.245205,-0.05939 -0.118872,0.06844 -0.220954,0.173014 -0.291008,0.290941 -0.712799,1.199931 10.034652,6.995396 3.515144,2.274864 1.22715,0.552773 2.944365,1.61362 -2.109752,-1.324927 -0.149718,-0.08705 0.298126,0.176591 0.442685,0.27196 0.148227,0.09779 0.295271,0.197916 0.435226,0.307213 0.128068,0.100015 0.245212,0.21328 0.367818,0.319921 0.09781,0.102563 0.205776,0.196315 0.293421,0.307689 0.235416,0.299146 0.400174,0.792763 0.517279,1.156501 z" />
    <path
       style="fill:#f9f9f9;stroke-width:0.264583"
       id="path3"
       d="m 44.292686,39.951805 c 0.562285,-0.303136 1.087766,-0.661628 1.572861,-1.076087 0.47653,-0.464047 0.879104,-0.999461 1.250275,-1.549625 0.320712,-0.464301 0.522555,-0.909611 0.621509,-1.462288 0.057,-0.295667 0.01701,-0.600239 0.06019,-0.896761 0.0063,-0.04325 -0.0081,-0.108876 0.03153,-0.127264 0.03572,-0.01656 -0.0072,0.07843 -0.01077,0.117639 -0.231629,1.436502 0.02824,0.17808 -3.336549,-1.731166 -0.04155,-0.02358 0.08239,0.05373 0.10827,0.09389 0.150252,0.233058 0.205491,0.571918 0.284319,0.832175 0.166645,0.568994 0.280873,1.151789 0.37589,1.736497 0.07288,0.599562 0.101145,1.199021 0.214427,1.793214 0.160181,0.75593 0.313849,1.512768 0.499636,2.26291 0.189815,0.646229 0.272489,1.308661 0.3159,1.978244 0.03598,0.666928 0.02305,1.335344 0.0259,2.002994 0.0075,0.73328 0.0081,1.466779 1.99e-4,2.20005 -0.01548,0.654796 -2.65e-4,1.309542 -0.0021,1.964418 0.01979,0.460316 -0.0528,0.908536 -0.162727,1.352663 -0.01217,0.05243 -0.02437,0.104857 -0.03654,0.157287 0,0 3.476966,1.862987 3.476966,1.862987 v 0 c 0.0095,-0.05103 0.01897,-0.10206 0.02846,-0.153091 0.101902,-0.480972 0.189632,-0.962697 0.151461,-1.458087 -0.0019,-0.655296 0.01336,-1.310441 -0.0011,-1.965668 -0.0065,-0.732031 -0.0038,-1.464289 0.0069,-2.196275 0.0046,-0.674976 -0.0043,-1.349669 -0.02011,-2.024475 -0.03141,-0.694314 -0.07781,-1.393796 -0.300225,-2.057779 -0.05771,-0.207213 -0.166008,-0.585073 -0.21126,-0.793104 -0.103711,-0.476811 -0.14932,-0.965385 -0.275383,-1.437968 -0.123434,-0.586166 -0.164857,-1.174438 -0.208619,-1.770716 -0.08725,-0.602668 -0.202171,-1.202735 -0.369662,-1.788509 -0.0772,-0.284835 -0.159073,-0.567389 -0.209188,-0.858597 -0.01246,-0.07238 0.02974,-0.177855 -0.03174,-0.218025 -3.367238,-2.199833 -2.317189,-2.747232 -3.653144,-1.956937 -0.04318,0.06091 -0.09785,0.115133 -0.129548,0.182734 -0.143682,0.306377 -0.02228,0.73628 -0.09146,1.062435 -0.05813,0.482764 -0.221382,0.92611 -0.495459,1.331841 -0.360238,0.519641 -0.746813,1.021625 -1.211842,1.453181 -0.36164,0.309796 -0.813038,0.672595 -1.273979,0.816642 -0.07424,0.0232 -0.153451,0.02556 -0.230177,0.03836 z" />
    <path
       style="fill:#f9f9f9;stroke-width:0.264583"
       id="path4"
       d="m 50.076393,40.835897 c 0.168249,-0.650819 0.476541,-1.255546 0.79371,-1.844707 0.405173,-0.699685 0.934792,-1.312002 1.474367,-1.909556 0.406834,-0.407858 0.856695,-0.781878 1.352608,-1.07688 0.273426,-0.142325 0.53798,-0.320019 0.825479,-0.434851 0.179245,-0.07159 0.366062,-0.122645 0.54759,-0.18823 0.693962,-0.215953 1.403101,-0.378579 2.095494,-0.599043 0.516647,-0.151373 1.013008,-0.359336 1.541061,-0.469461 0.136406,0.03247 0.252317,-0.125526 0.385471,-0.112181 0.03079,0.0031 0.08119,0.0904 0.05409,0.07545 -1.135457,-0.626647 -2.262868,-1.267884 -3.386908,-1.91479 -0.01765,-0.01016 0.05049,-0.01669 0.06106,7.94e-4 0.02109,0.03468 0.0087,0.08072 0.01302,0.121086 -0.06229,0.635424 -0.115337,1.270154 -0.136112,1.908644 -0.03026,0.759015 -0.04207,1.518507 -0.05787,2.27789 -0.01058,0.617887 0.0019,1.235811 0.0013,1.853687 0.0085,0.752255 5.29e-4,1.504738 0.02543,2.256684 0.03145,0.867243 0.116803,1.731129 0.170207,2.597166 0.08904,0.718968 0.173363,1.440458 0.295582,2.15488 0.06894,0.423212 0.235111,0.817065 0.373779,1.219557 0.01723,0.05734 0.03446,0.114679 0.05169,0.172017 0,0 3.552412,1.690986 3.552412,1.690986 v 0 c -0.01617,-0.06346 -0.03231,-0.126915 -0.04847,-0.190373 -0.124066,-0.401182 -0.298929,-0.782577 -0.408191,-1.188461 -0.173945,-0.704932 -0.269581,-1.423519 -0.386345,-2.13986 -0.06353,-0.859395 -0.09604,-1.718561 -0.155609,-2.577692 -0.03435,-0.743146 -0.0053,-1.48712 -0.0077,-2.230858 -0.0013,-0.616974 0.0088,-1.233977 2.65e-4,-1.850972 -0.01013,-0.759823 -0.01132,-1.520143 0.01804,-2.279587 0.03836,-0.624951 0.07326,-1.254903 0.223695,-1.865196 0.0084,-0.0542 0.01495,-0.108714 0.02516,-0.162602 0.01238,-0.06526 0.09838,-0.158628 0.04258,-0.194673 -4.164724,-2.690466 -2.186479,-2.324777 -3.933137,-1.846939 -0.515003,0.149463 -1.014137,0.348765 -1.525973,0.508791 -0.694899,0.218485 -1.402133,0.394501 -2.09885,0.6067 -0.513477,0.164219 -0.996791,0.379746 -1.445543,0.682506 -0.509966,0.331007 -0.953101,0.750451 -1.354312,1.206375 -0.550722,0.62633 -1.135716,1.242754 -1.548974,1.97154 -0.323795,0.608502 -0.606036,1.239163 -0.887561,1.868086 z" />
    <path
       style="fill:#f9f9f9;stroke-width:0.264583"
       id="path5"
       d="m 68.285904,13.106007 c 0.0496,0.865046 0.05652,1.732355 0.08004,2.598551 0.003,1.393039 -0.106461,2.782292 -0.180274,4.172399 -0.07258,1.188664 -0.0863,2.378993 -0.09442,3.569409 -0.01328,1.083277 -0.0019,2.166549 -0.01635,3.249782 -7.93e-4,0.91738 -0.01273,1.83491 -0.0044,2.752225 -0.01966,1.045126 0.025,2.089259 0.02725,3.134315 -0.03852,1.243576 0.01786,2.483554 0.08778,3.724646 0.06122,0.959561 0.284176,1.886328 0.597805,2.791346 0.358066,0.888402 0.713391,1.778307 1.077725,2.664322 0.206592,0.520155 0.424069,1.034548 0.690647,1.526895 0,0 3.566583,1.588939 3.566583,1.588939 v 0 c -0.100356,-0.165237 -0.21119,-0.324456 -0.302289,-0.494972 -0.176006,-0.329435 -0.300151,-0.686239 -0.468,-1.019598 -0.392317,-0.867542 -0.703228,-1.768285 -1.081995,-2.64187 -0.33673,-0.877506 -0.569804,-1.786784 -0.692211,-2.719914 -0.04254,-0.468178 -0.07786,-0.788236 -0.0944,-1.262332 -0.02838,-0.813335 0.0043,-1.628381 -0.01463,-2.441885 0.0021,-1.035862 0.04717,-2.070772 0.02705,-3.106711 0.0081,-0.919244 -0.0046,-1.838703 -0.0065,-2.758003 -0.01558,-1.087041 -0.007,-2.174165 -0.01167,-3.261294 0.006,-1.19022 0.01868,-2.380724 0.05762,-3.570352 0.06026,-1.39497 0.161521,-2.787381 0.198956,-4.183203 0.02344,-0.838993 0.02967,-1.679245 0.08004,-2.516982 z" />
    <path
       style="fill:#f9f9f9;stroke-width:0.264583"
       id="path6"
       d="m 69.129684,32.336208 c -0.129273,-0.256342 -0.303318,-0.516083 -0.557689,-0.666771 -3.295858,-1.952448 -2.491247,-1.706229 -4.438946,-2.343449 -0.621964,-0.161237 -1.230146,-0.369004 -1.859177,-0.500314 -0.608007,-0.10224 -0.792966,-0.223301 -1.1167,0.398092 -0.132249,0.47901 -0.09089,0.982816 -0.08399,1.474287 0.0029,0.402162 0.01469,0.804111 0.0149,1.206291 0.0066,0.36363 -0.0069,0.727213 0.0044,1.090719 -0.01095,0.389935 -0.08766,0.772935 -0.15313,1.156141 -0.07569,0.435502 -0.09223,0.875684 -0.103712,1.316347 0.0093,0.59318 -5.29e-4,1.186143 0.0064,1.779342 -0.01008,0.584547 2.6e-4,1.169024 -7.93e-4,1.753537 -0.0074,0.599238 0.0055,1.198401 -1.38e-4,1.797616 -0.01193,0.514789 -0.0177,1.02903 0.02315,1.542555 0.02016,0.400063 0.103169,0.792326 0.167021,1.186683 0.06274,1.677659 2.299726,3.16317 3.927041,2.617097 0.501221,-0.264975 0.816033,-0.720154 1.121682,-1.179259 0.344316,-0.438237 0.656593,-0.900277 1.004224,-1.335828 0.269227,-0.336042 0.599911,-0.612849 0.942128,-0.870712 0.26538,-0.223224 0.484373,-0.490231 0.766755,-0.692716 0.298135,-0.168881 0.643345,-0.223034 0.968996,-0.320906 0,0 -3.239476,-2.220827 -3.239476,-2.220827 v 0 c -0.3727,0.09724 -0.749956,0.196262 -1.059471,0.437774 -0.27183,0.21531 -0.497284,0.478507 -0.762122,0.702175 -0.356205,0.286999 -0.698902,0.595352 -0.974986,0.962422 -0.344861,0.446942 -0.650579,0.921401 -1.006796,1.35985 -0.257183,0.351774 -0.504108,0.798655 -0.968375,0.879993 -1.376098,-0.314529 -0.02809,-0.02262 3.072514,1.8761 0.04311,0.02641 -0.107463,0.0011 -0.149077,-0.02777 -0.116065,-0.08004 -0.08757,-0.334219 -0.109916,-0.445137 -0.04161,-0.399759 -0.16333,-0.783582 -0.199961,-1.18359 -0.04788,-0.50614 -0.05276,-1.011111 -0.05281,-1.519587 -0.0056,-0.599355 0.0072,-1.19866 -5.29e-4,-1.798042 -0.0016,-0.585253 0.0081,-1.17048 -0.0031,-1.755756 0.006,-0.585936 -0.0069,-1.172007 0.01667,-1.757614 0.0075,-0.421693 0.0232,-0.844751 0.08304,-1.262719 0.06755,-0.403791 0.159618,-0.803082 0.186587,-1.212927 0.01156,-0.363878 -0.0024,-0.727821 1.24e-4,-1.09184 -0.006,-0.406598 -0.0053,-0.813353 -0.02692,-1.219557 -0.01463,-0.430903 -0.03894,-0.866584 0.01826,-1.295164 0.01085,-0.02627 0.01283,-0.05832 0.03251,-0.07885 0.07528,-0.07856 0.655568,0.09243 0.767146,0.100042 0.602337,0.147725 1.199681,0.319389 1.792544,0.501031 0.12682,0.0451 0.255445,0.08541 0.380458,0.135297 0.128608,0.05132 0.498287,0.239893 0.379875,0.168111 -0.985401,-0.597373 -1.992953,-1.157494 -2.983412,-1.746435 -0.08941,-0.05316 0.19232,0.08202 0.27955,0.138684 0.06849,0.04449 0.125294,0.105053 0.183642,0.162198 0.0416,0.04074 0.0771,0.08727 0.115652,0.130907 z" />
    <path
       style="fill:#f9f9f9;stroke-width:0.264583"
       id="path7"
       d="m 75.358494,26.056209 c 0.135594,0.749368 0.157671,1.516943 0.1772,2.2768 0.01127,1.246468 0.05002,2.491941 0.04578,3.73861 -0.0028,0.713087 -0.0506,1.428925 -0.0053,2.141786 0.02418,0.380918 0.05539,0.507667 0.118409,0.881243 0.12885,0.623414 0.26652,1.24791 0.43846,1.861068 0.161824,0.539113 0.396809,1.049904 0.624417,1.563103 0.161036,0.41338 0.305435,0.834655 0.406532,1.266944 0.07918,0.415184 0.07518,0.839883 0.08052,1.260816 0.0046,0.296572 -0.0024,0.593117 -0.0036,0.88968 0,0 3.497485,1.783374 3.497485,1.783374 v 0 c 5.29e-4,-0.298352 -0.0041,-0.596686 -5.29e-4,-0.895035 0.0016,-0.439301 0.0033,-0.87989 -0.03524,-1.317816 -0.0697,-0.470939 -0.261374,-0.901287 -0.396015,-1.355116 -0.20819,-0.51525 -0.484167,-1.001284 -0.645234,-1.535494 -0.102815,-0.273335 -0.144278,-0.530479 -0.222282,-0.810289 -0.09262,-0.332237 -0.09903,-0.300762 -0.190804,-0.647962 -0.03329,-0.125928 -0.06114,-0.25323 -0.09172,-0.379846 -0.06964,-0.331854 -0.113151,-0.498536 -0.149696,-0.837303 -0.07752,-0.718659 -0.05731,-1.444019 -0.08068,-2.165088 -0.0053,-1.238806 0.03737,-2.476857 0.014,-3.715483 -0.0071,-0.752165 5.29e-4,-1.504376 -0.02771,-2.256181 z" />
    <path
       style="fill:#f9f9f9;stroke-width:0.264583"
       id="path8"
       d="m 77.1156,29.725561 c 0.822399,2.168099 0.754235,1.300803 4.102068,3.093276 0.06828,-0.04495 0.143577,-0.08073 0.204836,-0.134853 0.07987,-0.07056 0.371244,-0.41869 0.433678,-0.496255 0.243798,-0.302879 0.472625,-0.614114 0.723207,-0.911805 0.585025,-0.652872 1.276662,-1.192768 1.968595,-1.725353 0.48845,-0.393525 0.999741,-0.754263 1.514179,-1.11189 0.298958,-0.24243 0.63337,-0.427482 1.002596,-0.534781 -0.07665,-0.240141 0.472998,0.274084 0.353848,0.208111 -1.084135,-0.600292 -2.14249,-1.246143 -3.221407,-1.855762 -0.05453,-0.03081 0.103285,0.07245 0.146126,0.118141 0.04798,0.05118 0.08269,0.113343 0.124037,0.170015 0.248036,0.399637 0.438335,0.830447 0.611132,1.266766 0.09623,0.259443 0.240829,0.494943 0.379807,0.732632 0,0 3.588157,1.603486 3.588157,1.603486 v 0 c -0.126857,-0.237067 -0.278781,-0.45743 -0.404492,-0.694915 -0.127842,-0.289536 -0.226862,-0.592876 -0.366858,-0.87711 -0.03551,-0.0721 -0.08178,-0.13857 -0.117129,-0.210748 -0.03751,-0.0766 -0.06745,-0.156676 -0.101179,-0.235014 -0.03512,-0.06696 -0.07151,-0.133268 -0.105362,-0.200877 -0.03448,-0.06886 -0.03457,-0.167193 -0.09958,-0.208465 -1.146882,-0.728006 -2.324846,-1.406431 -3.504806,-2.079503 -0.055,-0.03138 -0.124722,-0.02741 -0.188042,-0.02697 -0.131382,9e-4 -0.238742,0.04642 -0.360505,0.08643 -0.377278,0.161554 -0.720445,0.375037 -1.034423,0.640669 -0.50632,0.368016 -1.000422,0.749638 -1.476722,1.156543 -0.70294,0.557827 -1.400495,1.128014 -2.009137,1.790377 -0.431179,0.494541 -0.131218,0.144156 -0.528508,0.623547 -0.157329,0.189841 -0.352825,0.492318 -0.60112,0.580879 -0.03595,0.01283 -0.07622,-0.004 -0.114337,-0.006 1.088133,0.632962 2.181648,1.25676 3.264397,1.89889 0.05164,0.03063 -0.122155,-0.02513 -0.168751,-0.063 C 80.903582,32.138069 80.764726,31.67318 80.68833,31.40344 Z" />
    <path
       style="fill:#f9f9f9;stroke-width:0.264583"
       id="path9"
       d="m 94.284434,28.464012 c 0.634531,-0.44619 1.347713,-0.862597 1.92945,-1.375553 0.146256,-0.128963 0.278685,-0.272809 0.418028,-0.409212 0.353796,-0.417612 0.713888,-0.83433 1.021564,-1.288252 0.156525,-0.230923 0.267775,-0.527284 0.498886,-0.694474 -1.157354,-0.564443 -2.314708,-1.128885 -3.472059,-1.693328 0.03895,0.01242 0.09913,4.24e-4 0.116848,0.03726 0.04184,0.087 0.03552,0.190486 0.0391,0.286955 0.0181,0.4882 -0.05976,0.992864 -0.103563,1.477475 -0.08564,1.114069 -0.220805,2.217939 -0.438544,3.313774 -0.183131,0.801709 -0.273325,1.618655 -0.338995,2.436929 -0.04725,0.698674 -0.136128,1.387424 -0.260149,2.076558 -0.194934,0.938102 -0.201012,1.896396 -0.344466,2.842059 -0.116009,0.752679 -0.258191,1.501156 -0.330346,2.25978 -0.03411,0.366847 -0.04669,0.735068 -0.05112,1.103307 -0.0168,1.708351 0.07073,0.784736 3.505552,2.46774 0.08943,0.04382 0.158829,-0.120261 0.236183,-0.182989 0.08403,-0.06814 0.165243,-0.139689 0.247864,-0.209531 0.689488,-0.633452 1.130845,-1.489578 1.585785,-2.296777 0.474502,-0.88596 0.961465,-1.762492 1.497048,-2.613004 0.43138,-0.705029 0.95741,-1.074345 1.6481,-1.489844 0,0 -3.257019,-2.098167 -3.257019,-2.098167 v 0 c -0.706985,0.461584 -1.288788,0.903441 -1.710933,1.657776 -0.525256,0.863816 -0.997244,1.756753 -1.491776,2.637832 -0.414237,0.765085 -0.859978,1.566558 -1.557938,2.108189 -0.07832,0.04279 -0.149376,0.10305 -0.234953,0.128363 -0.0412,0.0122 -0.163626,-0.04395 -0.127132,-0.02127 1.084222,0.673735 2.194766,1.304526 3.278288,1.979388 0.02763,0.0172 -0.07839,0.02791 -0.09764,0.0016 -0.05457,-0.07441 0.05362,-0.202887 -0.0029,-0.276799 -0.0048,-0.365765 -0.01183,-0.731702 0.0011,-1.097393 0.03576,-0.763059 0.111839,-1.523529 0.229365,-2.278539 0.05499,-0.368454 0.125079,-0.734801 0.169383,-1.104689 0.06804,-0.568031 0.07984,-1.144796 0.204997,-1.706035 0.135575,-0.69754 0.292105,-1.390468 0.317135,-2.103882 0.02275,-0.814549 0.09735,-1.626143 0.247078,-2.427973 0.09945,-0.56201 0.219644,-1.123863 0.29228,-1.690185 0.03268,-0.254794 0.07389,-0.840769 0.09677,-1.093528 0.01691,-0.18687 0.037,-0.373438 0.0555,-0.56016 0.07764,-0.609309 0.168711,-1.216664 0.248761,-1.825528 0.0131,-0.09967 0.119062,-0.249315 0.03217,-0.29985 -1.159481,-0.674291 -2.405816,-1.186721 -3.608726,-1.780082 -0.155223,0.254609 -0.269401,0.528645 -0.424196,0.784039 -0.270335,0.446023 -0.596543,0.856111 -0.95224,1.236619 -0.723369,0.648537 -1.511234,1.235914 -2.403518,1.632838 z" />
    <path
       style="fill:#f9f9f9;stroke-width:0.264583"
       id="path10"
       d="m 93.498695,14.551918 c -0.11961,0.751864 -0.203488,1.509023 -0.31202,2.262753 -0.06398,0.466437 -0.114099,0.93431 -0.157401,1.403042 0,0 3.460655,1.792061 3.460655,1.792061 v 0 c 0.01847,-0.468307 0.0465,-0.936462 0.104296,-1.401825 0.09057,-0.744537 0.164944,-1.502848 0.405844,-2.216793 z" />
    <path
       style="fill:#f9f9f9;stroke-width:0.264583"
       id="path11"
       d="m 104.77605,27.189906 c 0.38728,-0.677071 0.90892,-1.271865 1.3959,-1.879413 0.46951,-0.559824 0.88172,-1.160078 1.27002,-1.778266 0.0624,-0.11348 0.12494,-0.226854 0.18713,-0.34044 0.14787,-0.270109 0.27285,-0.57465 0.44771,-0.828833 0.0224,-0.03255 0.0854,-0.122467 0.0847,-0.08296 -0.002,0.09378 -0.0588,0.178145 -0.0881,0.267217 -4.51156,-2.809543 -3.31789,-3.03878 -3.20225,-1.336494 0.0274,0.403137 0.0218,0.807594 0.0228,1.211346 -5.3e-4,0.971549 -0.0964,1.939489 -0.20667,2.903722 -0.16654,0.9979 -0.29926,1.999738 -0.43175,3.002697 -0.13004,1.004012 -0.33014,1.996993 -0.4595,3.001074 -0.0768,0.609943 -0.12276,1.222126 -0.13492,1.836562 -0.0506,0.520174 0.0481,1.018559 0.17754,1.519267 0.17627,0.503116 0.25963,1.023369 0.3246,1.549794 0.31545,1.968458 -0.12924,0.635185 3.6498,2.608204 0.39612,-0.99143 0.89598,-1.936289 1.38132,-2.885807 0.45847,-0.981398 1.0735,-1.87469 1.60241,-2.816413 0.25564,-0.457264 0.55236,-0.889122 0.81992,-1.338731 0.0325,-0.04542 0.0651,-0.09083 0.0976,-0.13625 0,0 -3.39497,-1.993646 -3.39497,-1.993646 v 0 c -0.035,0.05391 -0.0701,0.107821 -0.10512,0.161729 -0.26612,0.457648 -0.5226,0.919854 -0.7663,1.38996 -0.48068,0.969417 -1.05681,1.888315 -1.53924,2.857227 -0.27817,0.535496 -0.55719,1.070441 -0.84317,1.601825 -0.15456,0.287208 -0.297,0.581488 -0.46699,0.859845 -0.0477,0.07803 -0.10765,0.147799 -0.16148,0.2217 3.10719,1.820876 3.70527,3.200133 3.25057,1.1903 -0.12046,-0.530426 -0.11673,-1.088099 -0.3287,-1.597809 -0.14483,-0.459046 -0.23879,-0.926719 -0.21364,-1.410676 0.002,-0.611137 0.005,-1.223161 0.0578,-1.832472 0.0982,-1.009248 0.27675,-2.004118 0.42861,-3.005738 0.14902,-1.003239 0.26137,-2.011633 0.44246,-3.01007 0.10226,-0.973533 0.22246,-1.945683 0.26004,-2.924674 -0.002,-0.527286 -0.009,-1.054476 -5.3e-4,-1.581756 0.002,-0.09655 0.0847,-0.231636 0.007,-0.289589 -1.07962,-0.810067 -2.25003,-1.491484 -3.37505,-2.237225 -0.0689,0.06965 -0.14558,0.132359 -0.20666,0.208945 -0.0509,0.06382 -0.16325,0.33921 -0.1844,0.385789 -0.1428,0.314354 -0.30094,0.62103 -0.47761,0.917846 -0.4,0.595359 -0.78249,1.201549 -1.23162,1.762453 -0.48048,0.634196 -0.99197,1.241992 -1.5062,1.847819 z" />
    <path
       style="fill:#f9f9f9;stroke-width:0.264583"
       id="path12"
       d="m 103.91282,12.856382 c 0.0706,0.674305 0.0111,1.347041 -0.11153,2.010919 -0.12518,0.542966 -0.24716,1.085469 -0.43209,1.611611 -0.0225,0.06556 -0.0449,0.131117 -0.0674,0.196675 0,0 3.44368,1.889613 3.44368,1.889613 v 0 c 0.0189,-0.06539 0.0379,-0.130784 0.0568,-0.196176 0.17282,-0.552204 0.29993,-1.113598 0.4279,-1.677814 0.11606,-0.675541 0.178,-1.356913 0.20197,-2.041645 z" />
    <path
       style="fill:#f9f9f9;stroke-width:0.264583"
       id="path13"
       d="m 53.495527,50.808575 c 0.31682,0.499821 0.463177,1.085008 0.613317,1.651269 0.304707,1.202627 0.451437,2.438448 0.619728,3.665641 0.148006,1.064958 0.195726,2.139558 0.278593,3.210576 0.09529,1.05727 0.114496,2.118688 0.145272,3.179178 0.02593,1.426061 0.02492,2.852385 0.01177,4.278579 -0.0043,1.26642 -0.0027,2.533198 -0.02429,3.79947 -0.01551,0.815827 -0.09187,1.625055 -0.21063,2.431248 -0.07239,0.872506 -0.153778,1.741538 -0.290536,2.606614 -0.102314,0.642588 -0.289986,1.266291 -0.454366,1.894539 0,0 3.434627,1.846823 3.434627,1.846823 v 0 c 0.123074,-0.652579 0.285229,-1.296742 0.40145,-1.950635 0.137025,-0.858441 0.243872,-1.720072 0.370528,-2.579614 0.08421,-0.839004 0.09532,-1.680014 0.115485,-2.52263 0.04412,-1.272199 -0.0013,-2.544826 0.01013,-3.817535 -0.01212,-1.425789 -0.01032,-2.8516 -0.0016,-4.277387 0.01151,-1.057669 0.01413,-2.118389 -0.06892,-3.173388 -0.102986,-1.088245 -0.191841,-2.177934 -0.33964,-3.261426 -0.162677,-1.222039 -0.316373,-2.446192 -0.518726,-3.662305 -0.131998,-0.576201 -0.247344,-1.163153 -0.47992,-1.708745 z" />
    <path
       style="fill:#f9f9f9;stroke-width:0.264583"
       id="path14"
       d="m 58.875567,55.451274 c 0.968534,-0.663022 2.038117,-1.169242 3.081038,-1.704181 0.190889,-0.106948 0.382164,-0.213207 0.572664,-0.320842 0.217155,-0.122695 0.429369,-0.254381 0.650296,-0.370142 0.786127,-0.411908 1.613368,-0.740891 2.4364,-1.069628 0.550164,-0.243348 1.127903,-0.407419 1.659128,-0.691367 0.174291,-0.09072 0.323842,-0.232029 0.515072,-0.289943 0.03908,-0.01183 0.08365,-0.03056 0.121539,-0.01535 0.03215,0.01291 0.08742,0.103378 0.05689,0.08699 -1.127551,-0.605324 -2.239227,-1.239761 -3.358841,-1.859642 0.03057,0.0062 0.06743,-0.0011 0.09169,0.01857 0.168371,0.135925 0.138914,0.824844 0.143174,1.022348 0.0519,1.0635 0.04474,2.128586 0.05557,3.192983 0.03538,0.843116 -0.02254,1.705108 0.141327,2.539077 0.02856,0.145325 0.07395,0.286829 0.110919,0.430244 0.266975,0.907942 0.695857,1.755127 1.129112,2.59252 0.27563,0.509172 0.469252,1.051647 0.644959,1.601041 0.004,0.01857 0.07378,0.199792 0.01254,0.25055 -0.09874,0.08185 -0.62184,0.112202 -0.710306,0.126807 -0.186946,0.03087 -0.372345,0.07048 -0.558517,0.105727 -0.854556,0.190172 -1.734116,0.26297 -2.588553,0.451308 -0.484762,0.106855 -0.605589,0.168249 -1.060937,0.336018 -0.643514,0.229249 -1.230606,0.585783 -1.874949,0.810782 -0.524031,0.168785 -1.053962,0.304551 -1.538361,0.572849 -0.184656,0.107778 -0.339728,0.248438 -0.489508,0.398608 0,0 3.355546,2.061406 3.355546,2.061406 v 0 c 0.12677,-0.120058 0.259352,-0.230233 0.415121,-0.312238 0.475136,-0.238556 0.994899,-0.356232 1.489858,-0.54583 0.619334,-0.25064 1.188558,-0.59945 1.808623,-0.848873 0.156284,-0.05535 0.310155,-0.118065 0.468857,-0.166053 1.011243,-0.305781 2.080048,-0.389308 3.115741,-0.574127 0.530416,-0.05985 1.58741,-0.03045 1.71354,-0.758211 0.01429,-0.08244 -0.01331,-0.166807 -0.01995,-0.250211 -0.09461,-0.259041 -0.156969,-0.527971 -0.250745,-0.78654 C 70.102201,61.176282 69.937485,60.885259 69.792369,60.590965 69.64603,60.322149 69.487,60.06023 69.345652,59.788754 c -0.285909,-0.549111 -0.511898,-1.133369 -0.712267,-1.717791 -0.04214,-0.126934 -0.09369,-0.251119 -0.126412,-0.380797 -0.0328,-0.12996 -0.04753,-0.263829 -0.06963,-0.396031 -0.117809,-0.704572 -0.170299,-1.414608 -0.174768,-2.129192 0.014,-1.045853 0.01389,-2.092182 0.06456,-3.137167 -1e-4,-0.44981 0.01027,-0.900478 -0.02887,-1.34911 -3.425595,-1.922532 -2.519786,-2.572914 -4.308282,-1.537499 -0.509563,0.257402 -1.039323,0.472323 -1.548852,0.730221 -1.227378,0.567883 -2.456825,1.140912 -3.630895,1.813282 -1.068324,0.567007 -2.151608,1.106281 -3.2507,1.611058 z" />
    <path
       style="fill:#f9f9f9;stroke-width:0.264583"
       id="path15"
       d="m 66.174574,62.582744 c 1.348587,1.069938 2.956751,1.841588 4.440653,2.647038 0.171209,0.09293 0.902338,0.254222 1.033063,0.285892 0.767154,0.121815 0.87653,0.136607 1.656689,0.271325 0.339351,0.0586 0.970481,0.149352 1.322503,0.286533 0.109067,0.0425 0.402053,0.239914 0.300512,0.181685 -1.083406,-0.621279 -2.164112,-1.247249 -3.246165,-1.870872 0.0024,-0.02082 0.02635,-0.07021 0.0069,-0.06249 -0.07997,0.03167 -0.140819,0.09894 -0.213805,0.144436 -0.844021,0.526196 0.257757,-0.204467 -0.793959,0.523563 -0.636151,0.440365 -0.515609,0.353547 -1.180695,0.75859 -0.610251,0.388225 -1.282369,0.719674 -1.782421,1.256051 -0.178247,0.191196 -0.345525,0.44282 -0.496065,0.656203 -0.357809,0.466979 -0.518377,1.01037 -0.662979,1.568437 -0.148421,0.567968 -0.317323,1.124649 -0.410184,1.705192 -0.08383,0.724794 -0.09206,1.45488 -0.09031,2.183538 -0.0096,0.60816 -0.01461,1.216395 -0.02558,1.824537 -0.01236,0.450712 0.05694,0.898385 0.08854,1.347343 0.03706,0.377534 0.175533,0.734116 0.317053,1.082844 0,0 3.569893,1.643904 3.569893,1.643904 v 0 c -0.137917,-0.318876 -0.290375,-0.63324 -0.376531,-0.971645 -0.03622,-0.441497 -0.08962,-0.882309 -0.107765,-1.324607 -0.01371,-0.615585 -0.02265,-1.231326 -0.02678,-1.847038 0.01215,-0.706821 0.01056,-1.416241 0.09246,-2.119344 0.0825,-0.567849 0.24715,-1.109136 0.406085,-1.658708 0.141055,-0.510323 0.242602,-1.031356 0.557467,-1.472808 0.134583,-0.195077 0.282427,-0.422876 0.441799,-0.599599 0.465251,-0.515898 1.091654,-0.849767 1.656908,-1.238562 0.567589,-0.347271 1.137705,-0.688943 1.716828,-1.016746 0.149405,-0.08457 0.586229,-0.307668 0.713129,-0.442375 0.09094,-0.09653 0.137128,-0.227042 0.205692,-0.340564 -1.135848,-0.714264 -2.257351,-1.451869 -3.407547,-2.142792 -0.101518,-0.06098 -0.777735,-0.15989 -0.783186,-0.160776 -0.818184,-0.133387 -1.640541,-0.251569 -2.441876,-0.47058 -0.2085,-0.06871 -0.419606,-0.129953 -0.625502,-0.206108 -0.143388,-0.05304 -0.551764,-0.260932 -0.421372,-0.181115 5.251256,3.21447 3.327159,2.038254 2.235435,1.240488 z" />
    <path
       style="fill:#f9f9f9;stroke-width:0.264583"
       id="path16"
       d="m 74.743526,54.992195 c 0.572728,0.754475 0.902414,1.634268 1.192289,2.525342 0.215278,0.64235 0.385379,1.300859 0.621726,1.936203 0.163124,0.438504 0.246245,0.602451 0.441955,1.036703 0.485386,1.050883 0.954934,2.109423 1.480793,3.140887 0.305322,0.626129 0.657344,1.227297 0.989764,1.838974 0,0 3.549682,1.584052 3.549682,1.584052 v 0 c -0.363395,-0.617887 -0.743437,-1.226277 -1.072594,-1.863542 -0.552628,-1.013389 -0.999612,-2.078249 -1.493269,-3.120943 -0.430186,-0.951916 -0.771406,-1.933086 -1.080537,-2.930613 -0.0038,-0.01262 -0.317873,-1.050623 -0.325996,-1.073861 -0.181734,-0.520002 -0.446865,-1.003914 -0.69447,-1.493991 z" />
    <path
       style="fill:#f9f9f9;stroke-width:0.264583"
       id="path17"
       d="m 80.034351,57.60281 c 1.270302,-0.128786 2.540278,0.0024 3.804851,0.127129 1.171515,0.105257 2.303847,0.433489 3.45948,0.634463 0.376873,0.05187 0.754624,0.100539 1.134026,0.130186 0.09747,0.0076 0.43743,0.01691 0.543195,0.05539 0.06725,0.02447 0.119237,0.07917 0.178855,0.118764 -1.07806,-0.610558 -2.156121,-1.221119 -3.234182,-1.831676 0.03523,0.02111 0.08292,0.02916 0.105699,0.06334 0.03183,0.04777 0.04541,0.108321 0.04692,0.165709 0.0087,0.33183 -0.103251,0.691335 -0.170561,1.01305 -0.16132,0.780235 -0.178687,1.579591 -0.215982,2.372672 -0.02119,0.845677 -0.01508,1.692288 0.0019,2.538053 0.06752,0.940638 0.09175,1.88351 0.104552,2.826263 -0.01662,0.524756 0.01648,1.05352 -0.02726,1.57717 -0.01275,0.02421 -0.01453,0.05897 -0.03825,0.07259 -0.05866,0.03369 -0.240051,-0.0859 -0.241294,-0.08642 -0.261279,-0.109993 -0.533379,-0.205018 -0.800042,-0.301289 -0.797656,-0.322035 -1.623555,-0.572455 -2.451846,-0.802682 -0.662419,-0.181153 -1.326187,-0.362604 -1.99934,-0.499745 -0.218252,-0.06096 -0.439455,-0.109043 -0.661464,-0.153731 0,0 3.130005,2.375032 3.130005,2.375032 v 0 c 0.215585,0.04766 0.430549,0.09807 0.646806,0.142658 0.649409,0.142068 1.296366,0.297813 1.934554,0.484381 0.836268,0.244806 1.66321,0.516276 2.470282,0.846246 0.559266,0.191008 1.203166,0.445463 1.502481,-0.259877 0.04847,-0.549285 -0.02651,-1.102672 -0.02788,-1.652841 -0.0291,-0.94469 -0.07761,-1.888397 -0.104963,-2.833156 -0.04674,-0.835115 -0.0053,-1.671735 -0.0011,-2.507715 0.01228,-0.772761 0.0475,-1.548146 0.197191,-2.308413 0.07124,-0.359124 0.06577,-0.3438 0.147601,-0.705834 0.0083,-0.03659 0.152492,-0.646671 0.154527,-0.684559 0.0755,-1.404517 -6.980206,-2.801911 -3.558426,-2.267797 -0.608335,-0.08929 -1.229654,-0.07326 -1.834541,-0.197056 -1.127636,-0.196626 -2.243789,-0.476729 -3.390691,-0.543092 -1.335628,-0.102777 -2.670339,-0.19889 -4.009576,-0.235403 z" />
    <path
       style="fill:#f9f9f9;stroke-width:0.264583"
       id="path18"
       d="m 94.627736,50.937924 c -0.888106,0.26275 -1.80789,0.441235 -2.674451,0.774801 -0.184938,0.07119 -0.36367,0.157567 -0.545504,0.236349 -0.624018,0.311417 -1.392979,0.552519 -1.813582,1.153978 -0.04348,0.06218 -0.07137,0.133929 -0.107053,0.200895 -0.01373,0.0803 -0.0382,0.159488 -0.04121,0.240898 -0.01572,0.424765 0.302223,0.941255 0.49439,1.297562 0.315933,0.515442 0.632751,1.037441 1.040651,1.487138 0.280268,0.308988 0.378732,0.380836 0.690975,0.657214 1.419492,1.059892 2.958158,2.002423 4.610103,2.647702 0.411138,0.160599 0.83684,0.276576 1.259927,0.400068 0.115374,0.04085 0.234326,0.07275 0.346123,0.122558 0.127812,0.05695 0.247168,0.131233 0.370755,0.19685 -0.969373,-0.549183 -1.930792,-1.112647 -2.908115,-1.64755 -0.138858,-0.076 0.263689,0.175456 0.390803,0.269793 0.361709,0.268438 0.375965,0.2995 0.693338,0.60075 0.290298,0.296799 0.547037,0.624816 0.779407,0.968422 0.01389,0.02056 0.200943,0.288288 0.200173,0.363599 -2.65e-4,0.03124 -0.03332,0.05285 -0.04998,0.07928 -0.05955,0.03713 -0.115129,0.08156 -0.178655,0.111379 -0.25626,0.120306 -0.526357,0.208875 -0.786003,0.321691 -0.538033,0.233772 -1.074513,0.45603 -1.624547,0.66023 -0.908822,0.311799 -1.758328,0.751039 -2.598137,1.211392 -0.613878,0.313135 -1.102786,0.704115 -1.584494,1.189218 -0.237625,0.269033 -0.122521,0.142414 -0.344342,0.380733 0,0 3.354395,2.026406 3.354395,2.026406 v 0 c 0.20293,-0.243678 0.09871,-0.119578 0.312812,-0.372181 0.44582,-0.447707 0.947584,-0.81719 1.504066,-1.118738 0.222496,-0.135713 0.469821,-0.291333 0.700183,-0.410506 0.587296,-0.303832 1.214752,-0.522158 1.821201,-0.782852 0.540819,-0.225049 1.079923,-0.452255 1.629151,-0.656368 0.2218,-0.08243 0.695374,-0.232277 0.913714,-0.365053 0.10151,-0.06173 0.18157,-0.153276 0.27235,-0.229915 0.0618,-0.104564 0.15147,-0.197059 0.18536,-0.31369 0.0677,-0.232958 -0.0623,-0.377137 -0.17986,-0.554943 -0.23795,-0.359838 -0.50308,-0.703236 -0.777563,-1.03555 C 99.6684,60.710161 99.331795,60.339686 98.929392,60.098624 97.521267,59.25508 96.097568,58.166068 94.47954,57.672866 94.076212,57.553391 93.677226,57.431934 93.292069,57.260008 93.13497,57.18988 92.68104,56.944585 92.828241,57.033636 c 5.528522,3.344452 3.341783,1.979199 2.399829,1.388665 -0.70843,-0.555604 -1.317932,-1.199536 -1.758209,-1.992701 -0.201745,-0.389869 -0.395695,-0.781767 -0.554506,-1.190808 0.212839,-0.642601 1.109694,-0.903062 1.646209,-1.180367 1.052324,-0.404749 2.133782,-0.762653 3.264233,-0.861126 z" />
    <path
       style="fill:#f9f9f9;stroke-width:0.264583"
       id="path19"
       d="m 96.059507,42.952111 c 0.800503,0.923645 1.084924,2.180326 1.413664,3.326474 0.434411,1.744898 0.843976,3.495791 1.268523,5.24311 0.281943,1.242039 0.703043,2.444867 1.042165,3.671028 0.232011,1.114391 0.501351,2.218367 0.799331,3.316888 0.20538,0.717039 0.39115,1.438592 0.56727,2.163196 0.13292,0.566587 0.32141,1.116383 0.44754,1.684719 0.0576,0.315021 0.13758,0.625046 0.21837,0.934667 0,0 3.52357,1.67309 3.52357,1.67309 v 0 c -0.0948,-0.303139 -0.19923,-0.604271 -0.25656,-0.917583 -0.10265,-0.576144 -0.236,-1.139037 -0.41721,-1.695895 -0.20754,-0.734515 -0.39345,-1.475443 -0.62429,-2.203291 -0.34871,-1.091086 -0.62136,-2.200513 -0.83826,-3.325267 -0.32651,-1.243502 -0.77256,-2.449224 -1.09862,-3.6932 -0.47512,-1.750713 -0.91124,-3.512865 -1.33229,-5.27727 -0.17244,-0.698445 -0.26672,-1.099387 -0.45214,-1.781162 -0.147,-0.540525 -0.3125,-1.098167 -0.61965,-1.572358 z" />
    <path
       style="fill:#f9f9f9;stroke-width:0.264583"
       id="path20"
       d="m 104.03591,57.422732 c 0.64248,-1.418566 1.44209,-2.756731 2.16503,-4.134274 0.39623,-0.645416 0.66619,-1.4128 1.23045,-1.939422 0.67654,1.199113 -0.0734,-0.174757 -3.23612,-1.641684 -0.0997,-0.04623 0.11441,0.188807 0.15489,0.290947 0.0541,0.136636 0.0897,0.280037 0.12763,0.422034 0.13502,0.505669 0.15214,0.647999 0.25054,1.165516 0.20913,1.32911 0.58324,2.622923 0.91196,3.92517 0.22399,0.910445 0.47577,1.814206 0.74341,2.712755 0.18182,0.652907 0.42511,1.285959 0.68392,1.911543 0.0775,0.212873 0.17103,0.41828 0.27236,0.620577 0,0 3.58364,1.609929 3.58364,1.609929 v 0 c -0.11184,-0.197316 -0.24465,-0.383093 -0.31114,-0.602787 -0.27724,-0.61609 -0.54132,-1.23753 -0.74043,-1.884466 -0.26062,-0.918506 -0.584,-1.817867 -0.82829,-2.741175 -0.34468,-1.286193 -0.71942,-2.571692 -0.90988,-3.89172 -0.09,-0.534768 -0.16552,-1.073721 -0.26752,-1.606364 -0.0227,-0.118698 0.0222,-0.286012 -0.0776,-0.354169 -3.38445,-2.311281 -2.44879,-2.927051 -3.71792,-1.968712 -0.487,0.640856 -0.80172,1.390291 -1.12885,2.120435 -0.6396,1.412428 -1.40165,2.764512 -2.28379,4.040806 z" />
    <path
       style="fill:#f9f9f9;stroke-width:0.264583"
       id="path23"
       d="m 107.655,40.094646 c 0.36189,1.401093 0.77916,2.787202 1.17253,4.179715 0.60516,2.152465 1.19145,4.310354 1.68751,6.490803 0.32338,1.613051 0.71008,3.212852 1.15032,4.797851 0.34677,1.183235 0.85503,2.308371 1.24994,3.475654 0.22284,0.605737 0.4001,1.225976 0.5778,1.845898 0,0 3.48967,1.649269 3.48967,1.649269 v 0 c -0.20538,-0.630256 -0.40316,-1.263168 -0.63287,-1.885204 -0.40226,-1.167635 -0.88038,-2.305314 -1.27962,-3.474148 -0.51313,-1.587672 -0.9125,-3.207978 -1.27891,-4.835231 -0.27362,-1.102641 -0.58066,-2.196304 -0.8543,-3.298836 -0.26458,-1.066051 -0.50433,-2.138349 -0.81305,-3.193267 -0.33271,-1.326819 -0.71954,-2.645457 -0.93035,-3.99851 z" />
    <path
       style="fill:#f9f9f9;stroke-width:0.264583"
       id="path24"
       d="m 116.2716,56.47577 c 0.0647,-0.225288 0.11914,-0.453814 0.19424,-0.675863 0.096,-0.283787 0.21208,-0.560374 0.31863,-0.840369 0.48756,-1.281274 0.98967,-2.456717 1.60912,-3.679262 0.44529,-0.885034 0.97167,-1.725244 1.4001,-2.618406 0,0 -3.40072,-1.913112 -3.40072,-1.913112 v 0 c -0.36401,0.92044 -0.79004,1.813623 -1.21073,2.709423 -0.78068,1.708724 -1.41951,3.487475 -2.33721,5.130427 z" />
    <path
       style="fill:#f9f9f9;stroke-width:0.264583"
       id="path25"
       d="m 117.02045,54.530765 c 0.5758,-0.06018 1.13602,0.0485 1.68381,0.217093 0.0994,0.04168 0.20188,0.0765 0.29807,0.125042 0.0964,0.04864 0.37211,0.219189 0.27828,0.165764 -1.02357,-0.582795 -2.04086,-1.17665 -3.06756,-1.753915 -0.0964,-0.05421 0.18584,0.120161 0.27594,0.184317 0.21986,0.156554 0.27027,0.207669 0.47099,0.380402 0.47465,0.445751 0.7014,1.037182 0.91419,1.634955 0.16742,0.455356 0.31687,0.915393 0.43318,1.386406 0.13541,0.491284 0.10506,0.993664 0.0868,1.495825 -0.0193,0.432919 -0.0428,0.865359 -0.0381,1.298797 0,0 3.49814,1.76122 3.49814,1.76122 v 0 c -0.0377,-0.422433 -0.002,-0.84673 0.0125,-1.269947 0.0307,-0.528516 0.0793,-1.064739 -0.0374,-1.586611 -0.0965,-0.494228 -0.22876,-0.975484 -0.42314,-1.441227 -0.23822,-0.618109 -0.41166,-1.270217 -0.8491,-1.787951 -0.30222,-0.351904 -0.0962,-0.144137 -0.45891,-0.436933 -0.0865,-0.06985 -0.16048,-0.156972 -0.25602,-0.213868 -1.33009,-0.792118 -2.68909,-1.841175 -4.22486,-2.308627 -0.59255,-0.130308 -1.18556,-0.180266 -1.79233,-0.172392 z" />
    <path
       style="fill:#f9f9f9;stroke-width:0.264583"
       id="path26"
       d="m 119.28327,44.956782 c 0.68641,0.770816 1.26083,1.622224 1.76978,2.517767 0.77767,1.579899 1.53891,3.173019 2.21308,4.800397 0.41437,1.093329 0.77851,2.207037 1.11004,3.328312 0.18864,0.63186 0.36744,1.266182 0.53069,1.905175 0,0 3.50855,1.675408 3.50855,1.675408 v 0 c -0.17488,-0.645925 -0.31852,-1.301644 -0.55322,-1.929614 -0.13804,-0.460682 -0.31258,-0.899504 -0.47729,-1.351024 -0.25319,-0.694052 -0.48062,-1.397862 -0.76283,-2.081278 -0.66931,-1.613149 -1.46216,-3.170786 -2.10713,-4.794541 -0.45348,-0.880782 -0.99755,-1.715723 -1.60593,-2.49813 z" />
    <path
       style="fill:#f9f9f9;stroke-width:0.264583"
       id="path27"
       d="m 125.65983,47.579978 c 0.10048,0.02572 0.20097,0.05145 0.30145,0.07718 0.12945,0.04563 0.25542,0.102661 0.38834,0.136895 0.19015,0.04897 0.38534,0.07574 0.57831,0.11208 0.60883,0.114666 1.21828,0.217612 1.83097,0.309108 0.11445,0.01027 0.75566,0.07393 0.90307,0.0657 0.45798,-0.02556 0.87606,-0.219814 1.27018,-0.434266 0.18189,-0.08177 0.31919,-0.241089 0.49781,-0.328314 0.0527,-0.02574 0.11221,-0.04847 0.17062,-0.04307 0.0402,0.0037 0.13585,0.08734 0.10029,0.06812 -3.19879,-1.729187 -4.41449,-2.489025 -3.23267,-1.753028 0.0208,0.04522 0.051,0.08721 0.0625,0.135649 0.0685,0.287883 0.0251,0.618593 0.0312,0.909855 0.03,1.42381 0.0158,-0.260115 0.023,1.312293 0.008,1.52141 -0.009,3.04332 -0.0397,4.564497 -0.0207,0.861454 -0.0424,1.722736 -0.0539,2.584381 -0.0121,0.323228 -0.0159,0.645221 0.007,0.967843 0.0113,0.156972 -0.001,0.191614 0.0193,0.108442 -0.0195,-0.04003 -0.0182,-0.100965 -0.0584,-0.120097 -0.0661,-0.03145 -0.73725,-0.06203 -0.84226,-0.07147 0,0 3.13098,2.31303 3.13098,2.31303 v 0 c 0.2153,0.01498 0.7409,0.08634 0.93525,0.02463 0.10364,-0.03291 0.18442,-0.115276 0.27663,-0.172913 0.0322,-0.06653 0.0832,-0.126897 0.0966,-0.199578 0.009,-0.04629 -0.0254,-0.09074 -0.0345,-0.136917 -0.062,-0.313528 -0.0694,-0.630523 -0.0692,-0.949214 -0.012,-0.878805 -0.0335,-1.757312 -0.05,-2.636025 -0.0215,-1.521264 -0.0262,-3.044076 0.0271,-4.564639 0.0331,-0.816208 0.11315,-1.629217 0.13611,-2.445806 -0.25906,-1.525791 -0.005,-0.350461 -3.56702,-2.188384 -0.0556,-0.02869 -0.11748,0.04397 -0.17292,0.07294 -0.22558,0.117882 -0.41256,0.296606 -0.64111,0.409945 -0.69923,0.310708 -1.20793,0.335423 -1.9711,0.225306 -1.07476,-0.156993 -2.15126,-0.346726 -3.15146,-0.789614 z" />
    <path
       style="fill:#f9f9f9;stroke-width:0.264583"
       id="path28"
       d="m 131.94166,43.599179 c 0.61753,0.860023 1.0082,1.860756 1.36675,2.849538 0.45269,1.507318 0.86264,3.026672 1.18097,4.56822 0.0891,0.444592 0.15147,0.893421 0.2053,1.343361 0.0236,0.197151 0.0573,0.395451 0.0505,0.594426 1.18451,0.600752 2.32675,1.293357 3.55353,1.802259 0.0938,0.03891 0.059,-0.194347 0.0877,-0.291758 0.15963,-0.5416 0.37437,-1.049018 0.59828,-1.567035 0.4931,-1.016656 0.98424,-2.032548 1.41081,-3.079215 0.2353,-0.576406 0.51715,-1.145199 0.6758,-1.750288 0.0696,-0.265673 0.0994,-0.507587 0.14061,-0.777957 0.0799,-0.876871 0.0437,-1.758482 0.0958,-2.636864 0,0 -3.44075,-1.771502 -3.44075,-1.771502 v 0 c -0.0228,0.868334 0.0215,1.739765 -0.0775,2.605334 -0.10434,0.860517 -0.35105,1.685187 -0.70642,2.477024 -0.43256,1.038799 -0.90887,2.054963 -1.42841,3.053392 -0.19751,0.412747 -0.39366,0.824701 -0.57362,1.245457 -0.0435,0.101648 -0.085,0.2041 -0.12856,0.305729 -0.0183,0.04267 -0.0967,0.1035 -0.0568,0.127156 1.13397,0.671692 2.31355,1.263213 3.47033,1.894821 -0.0239,-0.01119 -0.0574,-0.0114 -0.0718,-0.03354 -0.0663,-0.10172 -0.11867,-0.409144 -0.13324,-0.490787 -0.0844,-0.472662 -0.14572,-0.950129 -0.27685,-1.41374 -0.37336,-1.543344 -0.79528,-3.074712 -1.18836,-4.613092 -0.0708,-0.234881 -0.13314,-0.472443 -0.21223,-0.704646 -0.2508,-0.736315 -0.58792,-1.4443 -0.91405,-2.149028 z" />
    <path
       style="fill:#f9f9f9;stroke-width:0.264583"
       id="path29"
       d="m 143.40409,41.658926 c 0.0744,0.825026 -0.23854,1.622295 -0.50258,2.388907 -0.29516,0.761262 -0.48378,1.550709 -0.58197,2.359879 -0.0684,0.586624 -0.0896,1.177383 -0.10714,1.767319 0.0505,0.692412 0.51938,1.252133 0.87699,1.818182 0.67267,1.08979 1.34464,2.180387 1.97803,3.293592 0.29259,0.541118 0.63302,1.057608 0.87626,1.624544 0.15188,0.354015 0.15089,0.398566 0.25496,0.770977 0.028,0.127548 0.0561,0.255098 0.0841,0.382646 0,0 3.47779,1.677101 3.47779,1.677101 v 0 c -0.0296,-0.13141 -0.0592,-0.262821 -0.0888,-0.394229 -0.0773,-0.360349 -0.091,-0.494853 -0.22444,-0.838816 -0.22919,-0.590918 -0.58778,-1.121844 -0.8958,-1.671905 -0.19156,-0.323916 -0.37118,-0.654947 -0.569,-0.975069 -0.47771,-0.773015 -0.99203,-1.525241 -1.4226,-2.327182 -0.19012,-0.349533 -0.37422,-0.710491 -0.58261,-1.05014 -0.0381,-0.06216 -0.0885,-0.116519 -0.12422,-0.180088 -0.0223,-0.03956 -0.12695,-0.300866 -0.14562,-0.346816 -0.012,-0.585457 -0.0134,-1.171721 0.0357,-1.755804 0.0862,-0.787225 0.24859,-1.554115 0.51986,-2.300362 0.20104,-0.599884 0.39891,-1.196901 0.54782,-1.8118 0.0315,-0.13004 0.0733,-0.257786 0.0976,-0.38935 0.015,-0.08085 0.0133,-0.163918 0.02,-0.245875 z" />
    <path
       style="fill:#f9f9f9;stroke-width:0.264583"
       id="path30"
       d="m 146.723,45.581474 c 0.16983,-0.01074 0.33945,-0.02558 0.50949,-0.03227 2.18747,-0.08604 -0.87946,0.06139 1.37061,-0.03398 0.54608,-0.02315 1.08896,-0.07281 1.63538,-0.08754 1.1017,0.516814 3.332,1.570943 -2.82191,-1.579517 -0.0858,-0.04394 0.14022,0.135779 0.1891,0.218887 0.23774,0.404185 0.30668,0.941806 0.40983,1.388867 0.32829,1.269246 0.63117,2.545365 0.84669,3.838897 0.17456,1.098635 0.51174,2.149142 0.99384,3.148521 0.34088,0.669668 0.77057,1.287415 1.15472,1.931715 0.42895,0.706255 0.74922,1.461267 1.00833,2.243259 0.25156,0.721881 0.5485,1.426223 0.80232,2.147488 0.20332,0.639011 0.10958,0.323368 0.28251,0.946544 0,0 3.46019,1.645605 3.46019,1.645605 v 0 c -0.17924,-0.63387 -0.088,-0.313639 -0.27375,-0.96067 -0.21997,-0.726591 -0.46983,-1.443929 -0.77235,-2.140405 -0.14688,-0.40872 -0.26971,-0.83267 -0.44216,-1.23149 -0.15624,-0.361352 -0.35475,-0.706419 -0.50731,-1.069991 -0.38351,-0.658881 -0.8347,-1.274095 -1.22019,-1.931604 -0.22478,-0.435816 -0.45789,-0.875313 -0.63012,-1.335534 -0.20894,-0.558327 -0.33727,-1.144196 -0.4495,-1.728026 -0.2162,-1.295979 -0.55545,-2.564315 -0.8299,-3.84856 -0.0915,-0.481362 -0.15428,-0.982951 -0.28614,-1.455698 -0.0333,-0.119279 -0.0194,-0.282318 -0.12266,-0.35066 -3.21089,-2.12502 -2.23714,-2.008 -3.92078,-2.121723 -1.18171,0.117176 -2.36747,0.204065 -3.55467,0.09588 z" />
    <path
       style="fill:#f9f9f9;stroke-width:0.264583"
       id="path31"
       d="m 149.33615,57.260182 c 0.7189,-0.677833 1.41861,-1.376973 2.12557,-2.068028 0.44475,-0.454213 0.91657,-0.880822 1.40417,-1.28823 0,0 -3.28799,-2.041242 -3.28799,-2.041242 v 0 c -0.46078,0.436177 -0.89493,0.898478 -1.335,1.355408 -0.45508,0.459092 -0.91246,0.914731 -1.41532,1.322562 -0.4565,0.370234 -0.32503,0.235985 -0.70868,0.521107 -0.0549,0.04082 -0.10646,0.08602 -0.15969,0.12903 z" />
    <path
       style="fill:#f9f9f9;stroke-width:0.264583"
       id="path32"
       d="m 151.9408,40.974576 c 0.13497,1.243925 0.26418,2.48758 0.43566,3.727169 0.22535,1.619099 0.33926,3.249875 0.44894,4.879933 0.0449,0.843259 0.18018,1.675701 0.3051,2.509398 0.0498,0.315251 0.10793,0.628716 0.1731,0.941078 0,0 3.51936,1.685621 3.51936,1.685621 v 0 c -0.0898,-0.304655 -0.16087,-0.612466 -0.21886,-0.924981 -0.13981,-0.838486 -0.27456,-1.678212 -0.38525,-2.521077 -0.19069,-1.645507 -0.36597,-3.291946 -0.54456,-4.938697 -0.11804,-1.182769 -0.24254,-2.369703 -0.20424,-3.560201 z" />
    <path
       style="fill:#f9f9f9;stroke-width:0.264583"
       id="path33"
       d="m 156.29309,47.647399 c 0.58822,-0.581327 1.28929,-1.022972 1.94843,-1.515205 0.3471,-0.259205 0.88302,-0.690613 1.22464,-0.962919 0.466,-0.424688 0.94364,-0.839235 1.39759,-1.277044 0.10692,-0.103116 0.20465,-0.21545 0.31095,-0.319214 0.0744,-0.07267 0.12969,-0.18623 0.23101,-0.209836 0.0547,-0.01275 0.0703,0.08763 0.10544,0.13144 -1.08043,-0.566812 -2.10728,-1.250305 -3.2413,-1.70043 -0.16515,-0.06555 0.14745,0.324279 0.20108,0.493678 0.0699,0.220875 0.12092,0.447556 0.16867,0.674262 0.20371,0.967073 0.28473,1.941515 0.36565,2.924469 0.11257,1.883423 0.12628,3.770092 0.13835,5.656154 0.009,1.288653 0.16107,2.57008 0.31259,3.848073 0.0137,0.09838 0.0274,0.196757 0.0412,0.295137 0,0 3.50527,1.699678 3.50527,1.699678 v 0 c -0.0254,-0.09703 -0.0508,-0.194063 -0.0762,-0.291097 -0.23105,-1.286094 -0.5114,-2.571197 -0.50847,-3.885443 -0.007,-1.898989 -0.0169,-3.800353 -0.15927,-5.69495 -0.0638,-0.970185 -0.11323,-1.948902 -0.23458,-2.914216 -0.0283,-0.225216 -0.0765,-0.447503 -0.11184,-0.671721 -0.0286,-0.181076 0.066,-0.433158 -0.0799,-0.544105 -1.10038,-0.836629 -2.34652,-1.461831 -3.51978,-2.192745 -0.0764,0.04853 -0.16181,0.08514 -0.22914,0.1456 -0.0773,0.0694 -0.13244,0.160073 -0.19958,0.239337 -0.0902,0.10651 -0.17851,0.214743 -0.27246,0.317971 -0.41226,0.45298 -0.85175,0.883009 -1.31023,1.288811 -1.06371,0.868596 -2.18749,1.658083 -3.35893,2.37539 z" />
  </g>
</svg>
